<?xml version="1.0" encoding="UTF-8" standalone="no"?>
<!-- Created with Inkscape (http://www.inkscape.org/) -->

<svg
   width="128"
   height="128"
   viewBox="0 0 33.866667 33.866667"
   version="1.1"
   id="svg5"
   sodipodi:docname="logo.svg"
   inkscape:version="1.2.2 (b0a8486541, 2022-12-01)"
   xmlns:inkscape="http://www.inkscape.org/namespaces/inkscape"
   xmlns:sodipodi="http://sodipodi.sourceforge.net/DTD/sodipodi-0.dtd"
   xmlns="http://www.w3.org/2000/svg"
   xmlns:svg="http://www.w3.org/2000/svg">
  <sodipodi:namedview
     id="namedview7"
     pagecolor="#ffffff"
     bordercolor="#000000"
     borderopacity="0.25"
     inkscape:showpageshadow="2"
     inkscape:pageopacity="0.0"
     inkscape:pagecheckerboard="0"
     inkscape:deskcolor="#d1d1d1"
     inkscape:document-units="mm"
     showgrid="false"
     inkscape:zoom="2.36853"
     inkscape:cx="24.276662"
     inkscape:cy="68.819058"
     inkscape:window-width="1366"
     inkscape:window-height="699"
     inkscape:window-x="0"
     inkscape:window-y="0"
     inkscape:window-maximized="1"
     inkscape:current-layer="layer1" />
  <defs
     id="defs2" />
  <g
     inkscape:label="Calque 1"
     inkscape:groupmode="layer"
     id="layer1">
    <g
       id="g33159"
       transform="translate(-0.20723101,-0.01449688)">
      <ellipse
         style="fill:#162d50;fill-rule:evenodd;stroke-width:12.033"
         id="path842-5"
         cx="18.441067"
         cy="8.4876242"
         rx="2.3367913"
         ry="2.3565183" />
      <path
         style="fill:none;fill-rule:evenodd;stroke:#162d50;stroke-width:0.747284;stroke-dasharray:none;stroke-opacity:1"
         d="M 4.0129323,16.906591 30.240304,17.067336 Z"
         id="path31531" />
      <path
         style="fill:none;fill-rule:evenodd;stroke:#162d50;stroke-width:0.747284;stroke-dasharray:none;stroke-opacity:1"
         d="m 9.525796,17.131036 3.536035,-8.7374514 4.241754,0.017214"
         id="path31539" />
      <path
         style="fill:none;fill-rule:evenodd;stroke:#162d50;stroke-width:0.747284;stroke-dasharray:none;stroke-opacity:1"
         d="m 13.136251,16.692423 3.536036,8.737452 4.241753,-0.01721"
         id="path31539-7" />
      <path
         style="fill:none;fill-rule:evenodd;stroke:#5d9fe6;stroke-width:0.444131;stroke-dasharray:none;stroke-opacity:1"
         d="m 4.3617738,15.826792 c 0.028158,-0.141827 0.05632,-0.262128 0.084478,-0.354566 0.028148,-0.09259 0.056309,-0.156866 0.084468,-0.190038 0.028158,-0.03302 0.05632,-0.03435 0.084468,-0.0044 0.028158,0.03008 0.05632,0.0917 0.084478,0.181485 0.028158,0.08964 0.05632,0.207728 0.084468,0.347491 0.028158,0.139761 0.05632,0.301347 0.084478,0.475903 0.02816,0.174704 0.056309,0.362234 0.084468,0.552564 0.028158,0.190481 0.05632,0.383612 0.084478,0.569078 0.028148,0.185467 0.056309,0.363267 0.084468,0.523669 0.028158,0.160404 0.05632,0.303409 0.084468,0.421208 0.028158,0.11794 0.05632,0.210676 0.084478,0.273186 0.02816,0.06251 0.056309,0.09479 0.084468,0.09523 0.028158,4.42e-4 0.05632,-0.03125 0.084478,-0.09304 0.028148,-0.06177 0.056309,-0.153769 0.084468,-0.271123 0.028159,-0.117201 0.05632,-0.25977 0.084468,-0.419731 0.028158,-0.159961 0.05632,-0.337466 0.084478,-0.522637 0.028158,-0.185319 0.056309,-0.378452 0.084468,-0.568929 0.028158,-0.190481 0.05632,-0.378158 0.084478,-0.553009 0.028148,-0.174999 0.056309,-0.336876 0.084468,-0.477228 0.028159,-0.14035 0.05632,-0.258887 0.084468,-0.349409 0.028158,-0.09053 0.05632,-0.152737 0.084478,-0.18355 0.028159,-0.03096 0.056309,-0.03007 0.084468,0.0021 0.028158,0.03228 0.05632,0.09613 0.084478,0.187825 0.028148,0.09171 0.056309,0.211561 0.084468,0.352799 0.028158,0.141384 0.05632,0.304145 0.084468,0.479587 0.028158,0.17544 0.05632,0.36356 0.084478,0.554187 0.028159,0.190626 0.056309,0.383612 0.084468,0.568487 0.028158,0.184877 0.05632,0.361792 0.084478,0.521017 0.028148,0.159076 0.056309,0.300608 0.084468,0.416634 0.02816,0.116169 0.05632,0.206844 0.084468,0.267291 0.028158,0.06045 0.05632,0.09053 0.084478,0.0886 0.028158,-0.0018 0.056308,-0.03568 0.084468,-0.09951 0.028158,-0.06384 0.05632,-0.157898 0.084478,-0.277021 0.028148,-0.118974 0.056309,-0.263014 0.084468,-0.424154 0.02816,-0.161141 0.05632,-0.339531 0.084468,-0.525439 0.028158,-0.185762 0.05632,-0.379041 0.084478,-0.569373 0.02816,-0.190184 0.056309,-0.377418 0.084468,-0.551385 0.028158,-0.173968 0.05632,-0.334666 0.084478,-0.473544 0.028148,-0.138727 0.056309,-0.255496 0.084468,-0.3441 0.02816,-0.08846 0.05632,-0.148609 0.084468,-0.17721 0.028158,-0.0286 0.05632,-0.02552 0.084478,0.0088 0.02816,0.0345 0.056309,0.100407 0.084468,0.194018 0.028158,0.09376 0.05632,0.215395 0.084478,0.358106 0.028148,0.142861 0.056309,0.306799 0.084468,0.483274 0.028159,0.176325 0.05632,0.364888 0.084478,0.555661 0.028148,0.190775 0.056309,0.383464 0.084468,0.567897 0.028159,0.184288 0.05632,0.360171 0.084468,0.518068 0.028158,0.158045 0.05632,0.297956 0.084478,0.412213 0.028158,0.114397 0.056309,0.20301 0.084468,0.261391 0.028158,0.05823 0.05632,0.0861 0.084478,0.08197 0.028148,-0.0039 0.056309,-0.04009 0.084468,-0.106146 0.028158,-0.0659 0.05632,-0.162026 0.084468,-0.28277 0.028158,-0.120746 0.05632,-0.266259 0.084478,-0.428578 0.028158,-0.162466 0.056309,-0.341741 0.084468,-0.527945 0.028158,-0.18635 0.05632,-0.379777 0.084478,-0.569814 0.028148,-0.190036 0.056309,-0.376683 0.084468,-0.549763 0.028158,-0.172935 0.05632,-0.332454 0.084468,-0.46971 0.028158,-0.137265 0.05632,-0.252106 0.084478,-0.338645 0.028158,-0.08655 0.056309,-0.144485 0.084468,-0.17102 0.028171,-0.0264 0.056297,-0.02093 0.084424,0.01563 0.028235,0.03656 0.056364,0.104673 0.084489,0.200355 0.028235,0.09553 0.056363,0.218933 0.08449,0.36312 0.028126,0.144336 0.056364,0.309602 0.084489,0.486813 0.028126,0.177208 0.056364,0.366359 0.084489,0.557135 0.02813,0.190921 0.056249,0.383463 0.084496,0.567161 0.02813,0.183696 0.056249,0.358695 0.084496,0.515412 0.028119,0.156571 0.056249,0.294859 0.084379,0.407495 0.02824,0.112493 0.05637,0.199178 0.0845,0.255348 0.02812,0.05618 0.05635,0.08166 0.0845,0.07548 0.02813,-0.0063 0.05636,-0.04468 0.0845,-0.112789 0.02813,-0.06811 0.05625,-0.166004 0.0845,-0.288518 0.02813,-0.122518 0.05625,-0.269501 0.0845,-0.433148 0.02812,-0.1635 0.05625,-0.34351 0.08438,-0.530452 0.02824,-0.186792 0.05636,-0.380219 0.0845,-0.570108 0.02824,-0.189741 0.05635,-0.37565 0.0845,-0.547847 0.02813,-0.172051 0.05635,-0.330095 0.0845,-0.465878 0.02813,-0.13564 0.05625,-0.248713 0.0845,-0.333337 0.02813,-0.08448 0.05625,-0.140351 0.0845,-0.16453 0.02813,-0.02418 0.05625,-0.01652 0.08439,0.02225 0.02824,0.03876 0.05635,0.108949 0.0845,0.206548 0.02824,0.09759 0.05636,0.222618 0.0845,0.368426 0.02811,0.145666 0.05635,0.312108 0.0845,0.490055 0.02813,0.178094 0.05635,0.367689 0.0845,0.55861 0.02812,0.191068 0.05625,0.383316 0.0845,0.566425 0.02812,0.183106 0.05625,0.357073 0.08439,0.512464 0.02824,0.155391 0.05635,0.292057 0.0845,0.402777 0.02824,0.110722 0.05635,0.195343 0.0845,0.249303 0.02813,0.0541 0.05637,0.07739 0.0845,0.06885 0.02813,-0.0085 0.05635,-0.04909 0.0845,-0.119268 0.02812,-0.07018 0.05625,-0.170133 0.0845,-0.29427 0.02813,-0.124141 0.05625,-0.272596 0.0845,-0.437423 0.02813,-0.164679 0.05625,-0.345575 0.08439,-0.53281 0.02824,-0.187235 0.05635,-0.380958 0.0845,-0.570405 0.02812,-0.189446 0.05635,-0.374765 0.0845,-0.545931 0.02811,-0.171165 0.05635,-0.327882 0.0845,-0.462043 0.02813,-0.134017 0.05625,-0.245324 0.0845,-0.327883 0.02812,-0.08256 0.05625,-0.136084 0.0845,-0.158044 0.02812,-0.02197 0.05625,-0.0121 0.08439,0.02888 0.02824,0.04099 0.05636,0.113231 0.0845,0.212741 0.02824,0.09951 0.05635,0.226303 0.0845,0.373439 0.02813,0.147126 0.05635,0.314762 0.0845,0.493593 0.02813,0.178831 0.05625,0.368868 0.0845,0.559937 0.02812,0.19107 0.05625,0.382873 0.0845,0.565391 0.02813,0.182518 0.05625,0.355454 0.08439,0.509517 0.02824,0.154064 0.05635,0.289109 0.0845,0.398059 0.02824,0.108949 0.05636,0.191363 0.0845,0.243258 0.02813,0.0519 0.05635,0.07298 0.0845,0.06221 0.02811,-0.01077 0.05635,-0.05352 0.0845,-0.125751 0.02813,-0.07223 0.05625,-0.174114 0.0845,-0.300017 0.02812,-0.125913 0.05625,-0.275841 0.08438,-0.441552 0.02824,-0.165859 0.05635,-0.347639 0.0845,-0.535316 0.02824,-0.187679 0.05635,-0.3814 0.0845,-0.570552 0.02813,-0.189153 0.05635,-0.373881 0.0845,-0.544014 0.02813,-0.169987 0.05635,-0.325525 0.0845,-0.458063 0.02813,-0.132394 0.05625,-0.241786 0.0845,-0.322281 0.02813,-0.08066 0.05625,-0.131951 0.0845,-0.151705 0.02811,-0.01975 0.05625,-0.0077 0.08437,0.03554 0.02824,0.04319 0.05635,0.117498 0.0845,0.218933 0.02811,0.101436 0.05635,0.229842 0.0845,0.378449 0.02812,0.14861 0.05635,0.31727 0.0845,0.49684 0.02813,0.179716 0.05625,0.370194 0.0845,0.561263 0.02813,0.191068 0.05625,0.382726 0.0845,0.564506 0.02813,0.181781 0.05625,0.353685 0.08438,0.506421 0.02824,0.152736 0.05635,0.286161 0.0845,0.393194 0.02824,0.107178 0.05635,0.187677 0.0845,0.237361 0.02813,0.04967 0.05635,0.06856 0.0845,0.05558 0.02812,-0.013 0.05625,-0.05794 0.0845,-0.132246 0.02812,-0.07445 0.05625,-0.178242 0.0845,-0.305769 0.02812,-0.127522 0.05625,-0.278937 0.08438,-0.445826 0.02824,-0.16689 0.05635,-0.349408 0.0845,-0.537527 0.02824,-0.188121 0.05635,-0.381844 0.0845,-0.5707 0.02811,-0.188857 0.05635,-0.37285 0.0845,-0.541803 0.02812,-0.169102 0.05635,-0.323165 0.0845,-0.454082 0.02813,-0.130917 0.05625,-0.238394 0.0845,-0.316974 0.02812,-0.07843 0.05625,-0.127669 0.08439,-0.145222 0.02824,-0.01739 0.05635,-0.0031 0.0845,0.04231 0.02824,0.04527 0.05635,0.121778 0.0845,0.225124 0.02813,0.103212 0.05635,0.23338 0.0845,0.383316 0.02812,0.150083 0.05635,0.319775 0.0845,0.500228 0.02813,0.180307 0.05625,0.371227 0.0845,0.562297 0.02812,0.191216 0.05625,0.382432 0.0845,0.563621 0.02812,0.181044 0.05625,0.351915 0.08439,0.503177 0.02824,0.151412 0.05635,0.283211 0.0845,0.388478 0.02812,0.10511 0.05635,0.183548 0.0845,0.231167 0.02811,0.04763 0.05635,0.06413 0.0845,0.04896 0.02813,-0.01535 0.05625,-0.0625 0.0845,-0.138874 0.02812,-0.07637 0.05625,-0.182076 0.0845,-0.311223 0.02812,-0.129293 0.05625,-0.282033 0.08439,-0.449955 0.02824,-0.16807 0.05635,-0.351324 0.0845,-0.539739 0.02824,-0.188562 0.05635,-0.382285 0.0845,-0.570845 0.02812,-0.188416 0.05635,-0.37167 0.0845,-0.539741 0.02813,-0.167923 0.05635,-0.320659 0.0845,-0.449955 0.02812,-0.129145 0.05625,-0.234854 0.0845,-0.311223 0.02812,-0.07651 0.05625,-0.123551 0.08439,-0.138726 0.02824,-0.01535 0.05635,0.0012 0.0845,0.04881 0.02824,0.04763 0.05635,0.126044 0.0845,0.23117 0.02812,0.10526 0.05635,0.237066 0.0845,0.388476 0.02811,0.151263 0.05635,0.322132 0.0845,0.503324 0.02812,0.181043 0.05625,0.37226 0.0845,0.563475 0.02812,0.191069 0.05625,0.381989 0.0845,0.562296 0.02812,0.180454 0.05625,0.350145 0.08439,0.500228 0.02824,0.149935 0.05635,0.280115 0.0845,0.383465 0.02812,0.103212 0.05635,0.179568 0.0845,0.224977 0.02813,0.04541 0.05635,0.0597 0.0845,0.04231 0.02813,-0.01754 0.05625,-0.06678 0.0845,-0.145223 0.02812,-0.07843 0.05625,-0.186055 0.0845,-0.316973 0.02812,-0.130769 0.05625,-0.284981 0.08439,-0.453935 0.02824,-0.169101 0.05635,-0.353093 0.0845,-0.541951 0.02824,-0.188857 0.05635,-0.382578 0.0845,-0.570699 0.02813,-0.18812 0.05635,-0.370637 0.0845,-0.537526 0.02812,-0.166893 0.05625,-0.318302 0.0845,-0.445828 0.02812,-0.127521 0.05625,-0.231317 0.0845,-0.305622 0.02812,-0.07445 0.05625,-0.119268 0.08438,-0.132245 0.02824,-0.01314 0.05635,0.0057 0.0845,0.05544 0.02824,0.04967 0.05635,0.130326 0.0845,0.237361 0.02812,0.10703 0.05635,0.240457 0.0845,0.393196 0.02812,0.152736 0.05635,0.324638 0.0845,0.506419 0.02813,0.181781 0.05625,0.373437 0.0845,0.564507 0.02812,0.191069 0.05625,0.381546 0.08439,0.561264 0.02824,0.179569 0.05635,0.348228 0.0845,0.496836 0.02824,0.148609 0.05635,0.277022 0.0845,0.378452 0.02811,0.101436 0.05635,0.175736 0.0845,0.218932 0.02813,0.04319 0.05635,0.05528 0.0845,0.03554 0.02813,-0.0196 0.05625,-0.0712 0.0845,-0.151558 0.02812,-0.0805 0.05625,-0.190037 0.0845,-0.322427 0.02813,-0.132542 0.05625,-0.288078 0.08438,-0.458063 0.02824,-0.170133 0.05636,-0.354716 0.0845,-0.544014 0.02812,-0.189153 0.05635,-0.382876 0.0845,-0.570553 0.02812,-0.187677 0.05635,-0.369458 0.0845,-0.535169 0.02812,-0.165857 0.05625,-0.315794 0.0845,-0.441699 0.02814,-0.125897 0.05625,-0.227779 0.0845,-0.300018 0.02812,-0.07223 0.05625,-0.114988 0.08438,-0.12575 0.02824,-0.01079 0.05635,0.01039 0.0845,0.0622 0.02824,0.05174 0.05636,0.13446 0.0845,0.243258 0.02811,0.108951 0.05635,0.243996 0.0845,0.39806 0.02813,0.154064 0.05625,0.326997 0.0845,0.509515 0.02812,0.182517 0.05625,0.374472 0.0845,0.565393 0.02812,0.191068 0.05625,0.381104 0.08439,0.560083 0.02824,0.178834 0.05635,0.346311 0.0845,0.493447 0.02824,0.147289 0.05635,0.273924 0.0845,0.373439 0.02812,0.09967 0.05635,0.171756 0.0845,0.21274 0.02812,0.04113 0.05635,0.05086 0.0845,0.02888 0.02812,-0.02182 0.05625,-0.07563 0.0845,-0.158042 0.02812,-0.08242 0.05625,-0.193872 0.08439,-0.327885 0.02824,-0.134016 0.05636,-0.290878 0.0845,-0.462044 0.02824,-0.171018 0.05635,-0.356336 0.0845,-0.54593 0.02813,-0.189449 0.05635,-0.383022 0.0845,-0.570405 0.02811,-0.187235 0.05635,-0.368131 0.0845,-0.53281 0.02813,-0.164826 0.05625,-0.31314 0.0845,-0.437424 0.02813,-0.124288 0.05625,-0.224092 0.0845,-0.294269 0.02812,-0.07032 0.05625,-0.110721 0.08439,-0.119268 0.02824,-0.0085 0.05636,0.01489 0.0845,0.06885 0.02812,0.05395 0.05635,0.13858 0.0845,0.249303 0.02812,0.110721 0.05635,0.247535 0.0845,0.402924 0.02812,0.155245 0.05625,0.329209 0.0845,0.512318 0.02812,0.183107 0.05625,0.375354 0.0845,0.566423 0.02812,0.190922 0.05625,0.380516 0.08439,0.558609 0.02824,0.178096 0.05635,0.344396 0.0845,0.490203 0.02824,0.145666 0.05636,0.270683 0.0845,0.368279 0.02813,0.09759 0.05635,0.167628 0.0845,0.206549 0.02812,0.03891 0.05625,0.0463 0.0845,0.02226 0.02812,-0.02418 0.05625,-0.08005 0.0845,-0.16453 0.02812,-0.08448 0.05625,-0.197704 0.08437,-0.333339 0.02824,-0.135641 0.05635,-0.293827 0.0845,-0.465878 0.02824,-0.172049 0.05635,-0.358105 0.0845,-0.547848 0.02812,-0.189741 0.05635,-0.383317 0.0845,-0.570108 0.02812,-0.186941 0.05635,-0.366953 0.0845,-0.530452 0.02812,-0.163647 0.05625,-0.310634 0.0845,-0.433147 0.02813,-0.122518 0.05625,-0.220407 0.0845,-0.288519 0.02812,-0.06812 0.05625,-0.106296 0.08439,-0.112641 0.02824,-0.0063 0.05635,0.01931 0.0845,0.07534 0.02811,0.05618 0.05635,0.142861 0.0845,0.255349 0.02813,0.112642 0.05635,0.250924 0.0845,0.407643 0.02812,0.156569 0.05625,0.331567 0.0845,0.515265 0.02813,0.183845 0.05625,0.37624 0.0845,0.567161 0.02813,0.190921 0.05625,0.379925 0.08438,0.557135 0.02824,0.177359 0.05635,0.34248 0.0845,0.486811 0.02824,0.144337 0.05635,0.267587 0.0845,0.363268 0.02812,0.09567 0.05635,0.163498 0.0845,0.200209 0.02812,0.03671 0.05625,0.04187 0.0845,0.01562 0.02813,-0.02638 0.05625,-0.08448 0.0845,-0.170869 0.02812,-0.08654 0.05625,-0.201538 0.08439,-0.338793 0.02824,-0.13725 0.05635,-0.296775 0.0845,-0.469711 0.02824,-0.173083 0.05635,-0.359727 0.0845,-0.549764 0.02811,-0.189889 0.05636,-0.383316 0.0845,-0.569667 0.02812,-0.186351 0.05635,-0.365625 0.0845,-0.527945 0.02812,-0.162468 0.05625,-0.307981 0.0845,-0.428725 0.02812,-0.120745 0.05625,-0.216721 0.08439,-0.282768 0.02824,-0.06605 0.05635,-0.102028 0.0845,-0.106148 0.02824,-0.0042 0.05635,0.02374 0.0845,0.08197 0.02812,0.05838 0.05635,0.147126 0.0845,0.261392 0.02812,0.11425 0.05636,0.254316 0.0845,0.412212 0.02812,0.157898 0.05625,0.333781 0.0845,0.518067 0.02813,0.184434 0.05625,0.377124 0.0845,0.567897 0.02813,0.190776 0.05625,0.379337 0.08439,0.55581 0.02824,0.176325 0.05635,0.340268 0.0845,0.483126 0.02813,0.142861 0.05635,0.264342 0.0845,0.358107 0.02811,0.09376 0.05635,0.159518 0.0845,0.194015 0.02813,0.0345 0.05625,0.03746 0.0845,0.0088 0.02812,-0.0286 0.05625,-0.08876 0.0845,-0.177212 0.02813,-0.08846 0.05625,-0.205369 0.08439,-0.344099 0.02824,-0.138727 0.05635,-0.299578 0.0845,-0.473543 0.02824,-0.173967 0.05635,-0.361204 0.0845,-0.551387 0.02812,-0.190332 0.05635,-0.383612 0.0845,-0.569373 0.02812,-0.185907 0.05625,-0.364149 0.0845,-0.525437 0.02812,-0.161141 0.05625,-0.305179 0.0845,-0.424155 0.02813,-0.119122 0.05625,-0.213037 0.08439,-0.27702 0.02824,-0.06398 0.05635,-0.09759 0.0845,-0.09951 0.02824,-0.0019 0.05635,0.0283 0.0845,0.0886 0.02813,0.06046 0.05635,0.151117 0.0845,0.267289 0.02811,0.116021 0.05635,0.25756 0.0845,0.416784 0.02813,0.159075 0.05625,0.33599 0.0845,0.520867 0.02813,0.185025 0.05625,0.377863 0.08438,0.56849 0.02824,0.190624 0.05635,0.378744 0.0845,0.554186 0.02824,0.175441 0.05635,0.338203 0.0845,0.479588 0.02813,0.141384 0.05635,0.261098 0.0845,0.352799 0.02812,0.09186 0.05635,0.155538 0.0845,0.187825 0.02813,0.03228 0.05625,0.03288 0.0845,0.0023 0.02812,-0.03081 0.05625,-0.09316 0.0845,-0.183696 0.02813,-0.09038 0.05625,-0.209057 0.08439,-0.349408 0.02824,-0.140203 0.05635,-0.30223 0.0845,-0.477081 0.02811,-0.174998 0.05635,-0.362679 0.0845,-0.553156 0.02813,-0.190479 0.05635,-0.383611 0.0845,-0.568783 0.02812,-0.185319 0.05625,-0.362824 0.0845,-0.522783 0.02812,-0.159962 0.05625,-0.302379 0.0845,-0.419733 0.02812,-0.11735 0.05625,-0.20935 0.08438,-0.271123 0.02824,-0.06177 0.05635,-0.09331 0.0845,-0.09304 0.02824,4.42e-4 0.05635,0.03273 0.0845,0.09523 0.02812,0.0625 0.05635,0.155242 0.0845,0.273186 0.02813,0.117792 0.05625,0.26095 0.0845,0.421207 0.02813,0.160402 0.05625,0.338203 0.0845,0.523668 0.02812,0.185467 0.05625,0.378747 0.08437,0.569076 0.02824,0.190333 0.05635,0.377864 0.0845,0.552568 0.02824,0.174556 0.05635,0.336138 0.0845,0.475902 0.02811,0.13976 0.05635,0.257706 0.0845,0.347638 0.02813,0.08979 0.05635,0.151263 0.0845,0.181338 0.02812,0.03007 0.05625,0.02845 0.0845,-0.0044 0.02813,-0.03302 0.05625,-0.09759 0.08439,-0.189888 0.02824,-0.09245 0.05635,-0.212888 0.0845,-0.354715"
         title="sin(5*x)"
         id="path30367" />
      <rect
         style="fill:#162d50;fill-opacity:1;fill-rule:evenodd;stroke:#162d50;stroke-width:0.747284;stroke-dasharray:none;stroke-opacity:1"
         id="rect33149"
         width="4.1941791"
         height="4.1941791"
         x="19.734104"
         y="23.196733"
         ry="0.090995207" />
      <path
         sodipodi:type="star"
         style="fill:#162d50;fill-rule:evenodd;stroke:#162d50;stroke-width:0.3;stroke-dasharray:none;stroke-opacity:1"
         id="path5302"
         inkscape:flatsided="true"
         sodipodi:sides="3"
         sodipodi:cx="24.858046"
         sodipodi:cy="13.03087"
         sodipodi:r1="1.8573077"
         sodipodi:r2="0.92865384"
         sodipodi:arg1="2.0943951"
         sodipodi:arg2="3.1415927"
         inkscape:rounded="0.01"
         inkscape:randomized="3.0357661e-17"
         d="m 23.929392,14.639346 c -0.02786,-0.01609 -0.02786,-3.200866 0,-3.216951 0.02786,-0.01609 2.785961,1.576306 2.785961,1.608475 0,0.03217 -2.758102,1.624561 -2.785961,1.608476 z"
         inkscape:transform-center-x="-0.78968609"
         transform="matrix(1.7398589,0,0,1.7398589,-12.973508,-5.6849123)" />
      <ellipse
         style="fill:#162d50;fill-rule:evenodd;stroke-width:12.033"
         id="path842"
         cx="2.849504"
         cy="16.986965"
         rx="2.3367913"
         ry="2.3565183" />
    </g>
  </g>
</svg>
